<svg xmlns="http://www.w3.org/2000/svg" width="521.056" height="296.854" id="cisco">
  <defs>
    <clipPath id="a">
      <path d="M873.1-7534.226h521.056v-296.854H873.1Z" transform="translate(-873.097 7831.079)"></path>
    </clipPath>
  </defs>
  <path fill="#c4122e" d="M169.349 265.271h-21.318v-84.487h21.318v84.487Z"></path>
  <g>
    <g clip-path="url(#a)">
      <path fill="#c4122e" d="M341.246 204.99a37.287 37.287 0 0 0-17.935-4.511c-13.782 0-23.344 9.589-23.344 22.533 0 12.554 9.15 22.555 23.344 22.555a37.774 37.774 0 0 0 17.935-4.484v22.675a68.438 68.438 0 0 1-19.427 3c-23.979 0-45.027-16.531-45.027-43.757 0-25.221 19.043-43.723 45.027-43.723a64.844 64.844 0 0 1 19.427 3.032Zm-222.52 0a37.038 37.038 0 0 0-17.908-4.511c-13.809 0-23.364 9.589-23.364 22.533 0 12.554 9.157 22.555 23.364 22.555a37.524 37.524 0 0 0 17.908-4.484v22.675a68.045 68.045 0 0 1-19.448 3c-23.958 0-44.979-16.531-44.979-43.757 0-25.221 19.043-43.723 44.986-43.723a64.593 64.593 0 0 1 19.441 3.032Zm289.581-4.193a21.835 21.835 0 0 0-22.041 22.217 21.835 21.835 0 0 0 22.041 22.236 21.855 21.855 0 0 0 22.054-22.236 21.855 21.855 0 0 0-22.054-22.217m44.642 22.217c0 24.167-18.658 43.75-44.635 43.75s-44.622-19.583-44.622-43.757c0-24.121 18.637-43.724 44.615-43.724s44.642 19.6 44.642 43.73m-202.755-23.027c-.317-.1-9.292-2.58-16.666-2.58-8.542 0-13.188 2.863-13.188 6.922 0 5.146 6.267 6.941 9.771 8.049l5.882 1.871c13.843 4.4 20.143 13.876 20.143 24.168 0 21.223-18.664 28.354-34.979 28.354a128.016 128.016 0 0 1-23.006-2.309v-19.443c1.877.473 10.818 3.147 20.13 3.147 10.608 0 15.484-3.106 15.484-7.887 0-4.282-4.22-6.753-9.508-8.414-1.283-.432-3.228-1.04-4.551-1.472-11.871-3.755-21.771-10.737-21.771-24.715 0-15.8 11.831-26.41 31.481-26.41a91.306 91.306 0 0 1 20.778 2.687v18.03Z"></path>
      <path fill="#15495d" d="M31.69 89.993a10.572 10.572 0 0 0-10.581-10.541 10.576 10.576 0 0 0-10.588 10.534v22.183a10.587 10.587 0 0 0 10.585 10.32 10.587 10.587 0 0 0 10.585-10.32Zm58.134-29.1a10.584 10.584 0 0 0-10.585-10.584 10.584 10.584 0 0 0-10.585 10.584v51.28a10.585 10.585 0 0 0 10.585 10.585 10.585 10.585 0 0 0 10.585-10.585V60.887Zm58.141-39.827a10.579 10.579 0 0 0-10.582-10.548 10.58 10.58 0 0 0-10.588 10.548v112.183a10.588 10.588 0 0 0 10.585 10.319 10.588 10.588 0 0 0 10.585-10.319Zm58.134 39.827A10.584 10.584 0 0 0 195.518 50.3a10.584 10.584 0 0 0-10.585 10.584v51.28a10.585 10.585 0 0 0 10.585 10.585 10.585 10.585 0 0 0 10.585-10.585V60.878Zm58.073 29.1a10.535 10.535 0 0 0-10.521-10.541 10.574 10.574 0 0 0-10.581 10.534v22.183a10.551 10.551 0 0 0 10.551 10.551 10.551 10.551 0 0 0 10.551-10.551Zm58.161-29.1a10.555 10.555 0 0 0-10.551-10.287 10.555 10.555 0 0 0-10.551 10.287v51.28a10.552 10.552 0 0 0 10.551 10.551 10.551 10.551 0 0 0 10.551-10.551V60.887Zm58.174-39.827a10.551 10.551 0 0 0-10.551-10.551 10.551 10.551 0 0 0-10.551 10.551v112.183a10.56 10.56 0 0 0 5.137 9.529 10.559 10.559 0 0 0 10.827 0 10.56 10.56 0 0 0 5.138-9.529Zm58.161 39.827a10.586 10.586 0 0 0-10.683-10.561 10.554 10.554 0 0 0-10.548 10.554v51.287a10.555 10.555 0 0 0 10.548 10.573 10.58 10.58 0 0 0 10.683-10.573V60.886Zm58.053 29.1a10.562 10.562 0 0 0-10.561-10.562 10.562 10.562 0 0 0-10.561 10.562v22.177a10.568 10.568 0 0 0 10.561 10.581 10.566 10.566 0 0 0 10.554-10.581V89.994Z"></path>
      <path fill="#c4122e" d="M484.516 254.136v1.324h-3.768v9.8h-1.553v-9.792h-3.781v-1.331h9.1Zm.79 0h2.424l3.329 9.124h.054l3.221-9.117h2.377v11.115h-1.587v-9.116h-.054l-3.376 9.116h-1.463l-3.3-9.116h-.074v9.116h-1.553v-11.121Z"></path>
    </g>
  </g>
</svg>
